<svg id="Group_20" data-name="Group 20" xmlns="http://www.w3.org/2000/svg" width="72" height="72" viewBox="0 0 72 72">
  <circle id="Oval_Copy_3" data-name="Oval Copy 3" cx="36" cy="36" r="36" fill="#2d314d"/>
  <path id="Combined_Shape" data-name="Combined Shape" d="M19.414,39.414V29.98H18.081v2.545a.586.586,0,0,1-1.172,0V29.98H15.576v5.187a1.839,1.839,0,1,1-1.172,0V29.98H13.111a3.094,3.094,0,0,1-3.091-3.091V25.6H8.253a1.282,1.282,0,0,0-.914.379L3.486,29.829a1.846,1.846,0,0,1,.192.818,1.839,1.839,0,0,1-3.139,1.3,1.838,1.838,0,0,1,1.3-3.138A1.849,1.849,0,0,1,2.657,29l3.854-3.854a2.449,2.449,0,0,1,1.742-.722h1.768V23.091H7.475a.586.586,0,0,1,0-1.172h2.546V20.586H.586a.586.586,0,0,1,0-1.172h9.435V18.081H7.475a.586.586,0,0,1,0-1.172h2.546V15.576H4.833a1.838,1.838,0,1,1,0-1.173h5.188V13.111a3.078,3.078,0,0,1,.1-.772.586.586,0,1,1,1.135.292,1.925,1.925,0,0,0-.06.48V26.889a1.92,1.92,0,0,0,1.919,1.919H26.888a1.97,1.97,0,0,0,.481-.06.586.586,0,1,1,.292,1.135,3.085,3.085,0,0,1-.773.1H25.6v1.767a1.284,1.284,0,0,0,.379.914l3.855,3.855a1.857,1.857,0,0,1,.819-.191A1.838,1.838,0,1,1,29,37.345L25.146,33.49a2.449,2.449,0,0,1-.722-1.743V29.98H23.091v2.545a.586.586,0,0,1-1.172,0V29.98H20.586v9.434a.586.586,0,1,1-1.172,0ZM30.175,37.69a.668.668,0,1,0,.472-.194A.662.662,0,0,0,30.175,37.69Zm-15.852-.781a.666.666,0,1,0,.666-.666A.667.667,0,0,0,14.324,36.909ZM1.367,30.175a.666.666,0,1,0,.472-.2A.662.662,0,0,0,1.367,30.175ZM2.425,14.99a.666.666,0,1,0,.666-.667A.667.667,0,0,0,2.425,14.99ZM29.169,28.082a.585.585,0,0,1-.421-.713,1.927,1.927,0,0,0,.06-.481V13.111a1.921,1.921,0,0,0-1.92-1.919H13.111a1.932,1.932,0,0,0-.481.06.574.574,0,0,1-.146.019.586.586,0,0,1-.146-1.154,3.083,3.083,0,0,1,.772-.1H14.4V8.253a1.288,1.288,0,0,0-.378-.914L10.17,3.484a1.853,1.853,0,0,1-.816.193A1.838,1.838,0,1,1,9.354,0,1.836,1.836,0,0,1,11,2.655l3.855,3.856a2.446,2.446,0,0,1,.722,1.742v1.768h1.334V7.475a.586.586,0,0,1,1.172,0v2.546h1.333V.586a.586.586,0,0,1,1.172,0v9.435h1.333V7.475a.586.586,0,0,1,1.172,0v2.546h1.334V4.833a1.838,1.838,0,1,1,1.172,0v5.188h1.292a3.094,3.094,0,0,1,3.091,3.091V14.4h1.767a1.283,1.283,0,0,0,.914-.378l3.854-3.854a1.838,1.838,0,1,1,.829.829L33.49,14.854a2.447,2.447,0,0,1-1.743.723H29.98v1.333h2.545a.586.586,0,0,1,0,1.172H29.98v1.333h9.434a.586.586,0,0,1,0,1.172H29.98v1.333h2.545a.586.586,0,0,1,0,1.173H29.98v1.333h5.187a1.839,1.839,0,1,1,0,1.172H29.98v1.292a3.12,3.12,0,0,1-.1.772.584.584,0,0,1-.714.421Zm7.073-3.072a.666.666,0,1,0,.667-.667A.668.668,0,0,0,36.242,25.01ZM37.69,8.882a.666.666,0,1,0,.472-.2A.662.662,0,0,0,37.69,8.882ZM24.343,3.091a.666.666,0,1,0,.667-.666A.668.668,0,0,0,24.343,3.091ZM8.882,1.367a.668.668,0,1,0,.472-.194A.663.663,0,0,0,8.882,1.367ZM20,25.915a2.792,2.792,0,0,1-2.114.934,2.593,2.593,0,0,1-2.7-2.465,3.025,3.025,0,0,1-1.409-2.5A2.885,2.885,0,0,1,14.4,20.1a2.573,2.573,0,0,1-.617-1.668,2.843,2.843,0,0,1,2.172-2.659,1.95,1.95,0,0,1-.059-.472,2.258,2.258,0,0,1,2.348-2.152A2.446,2.446,0,0,1,20,13.883a2.445,2.445,0,0,1,1.761-.732A2.258,2.258,0,0,1,24.109,15.3a1.978,1.978,0,0,1-.059.472,2.844,2.844,0,0,1,2.172,2.659,2.633,2.633,0,0,1-.815,1.878,2.635,2.635,0,0,1,.815,1.879,2.756,2.756,0,0,1-1.415,2.344,2.613,2.613,0,0,1-2.694,2.313A2.787,2.787,0,0,1,20,25.915Zm2.7-7.167a.587.587,0,0,1-.586.586,1.426,1.426,0,0,0-1.528,1.292v3.758a1.549,1.549,0,0,0,3.056,0,1.328,1.328,0,0,0-1-1.212.586.586,0,0,1,.352-1.118,2.614,2.614,0,0,1,1.54,1.24,1.491,1.491,0,0,0,.517-1.1,1.564,1.564,0,0,0-.9-1.361.586.586,0,0,1,0-1.036,1.567,1.567,0,0,0,.9-1.361,1.761,1.761,0,0,0-1.866-1.606h-.032a2.093,2.093,0,0,0-.81.164.586.586,0,0,1-.455-1.08,3.271,3.271,0,0,1,.962-.241.835.835,0,0,0,.087-.368,1.195,1.195,0,0,0-2.351,0,.586.586,0,1,1-1.172,0,1.195,1.195,0,0,0-2.351,0,.871.871,0,0,0,.214.562.371.371,0,0,1,.03.039l0,0,0,.005.006.011a.067.067,0,0,0,.006.011.582.582,0,0,1-.119.756.589.589,0,0,1-.378.139h-.015a1.761,1.761,0,0,0-1.866,1.606,1.416,1.416,0,0,0,.319.886,3.543,3.543,0,0,1,1.075-.438.586.586,0,1,1,.263,1.142,2,2,0,0,0-1.657,1.855,1.78,1.78,0,0,0,.586,1.292,2.442,2.442,0,0,1,.362-.454.585.585,0,1,1,.825.831,1.183,1.183,0,0,0-.365.836,1.427,1.427,0,0,0,1.528,1.293,1.427,1.427,0,0,0,1.527-1.293V23.132a1.33,1.33,0,0,0-1-1.213.586.586,0,0,1,.175-1.145.591.591,0,0,1,.176.027,2.8,2.8,0,0,1,.647.3V17.848a.586.586,0,0,1,1.172,0V18.6a2.859,2.859,0,0,1,1.528-.434A.587.587,0,0,1,22.7,18.748Z" transform="translate(16 16)" fill="#fff"/>
</svg>
