<svg id="Group_23" data-name="Group 23" xmlns="http://www.w3.org/2000/svg" width="72" height="72" viewBox="0 0 72 72">
  <circle id="Oval" cx="36" cy="36" r="36" fill="#2d314d"/>
  <path id="Combined_Shape" data-name="Combined Shape" d="M27.319,39.979a.667.667,0,0,1-.666-.667V32.84l-.382-.613a9.629,9.629,0,0,1-.831-8.552L9.8,29.7a3.312,3.312,0,0,1-1.2.223,3.353,3.353,0,0,1-3.11-2.135l-2.5-6.5A3.319,3.319,0,0,1,0,17.99V3.332A3.343,3.343,0,0,1,3.332,0H29.984a3.341,3.341,0,0,1,3.331,3.332V7.059l4.11,4.117a8.669,8.669,0,0,1,2.553,6.143V39.312a.667.667,0,0,1-.667.667Zm.667-1.333h10.66V33.315H27.986Zm-6.2-25.5a2.223,2.223,0,0,0-.1,3.1l5.459,5.956a.666.666,0,0,1,.087.781,8.3,8.3,0,0,0,.169,8.534l.289.462H38.646V17.319a7.331,7.331,0,0,0-2.163-5.2L34.325,9.958l2.255,5.855a3.337,3.337,0,0,1-1.911,4.3l-.683.266,2.465,2.466-.942.942L24.892,13.177a2.223,2.223,0,0,0-3.106-.031ZM5.612,24.387l1.124,2.923A2.012,2.012,0,0,0,8.6,28.591a1.988,1.988,0,0,0,.717-.134l16.073-6.195-.866-.944H13.566Zm-.481-1.241,4.738-1.824H4.43ZM1.333,3.332V17.99a2,2,0,0,0,2,2H23.306l-2.6-2.841a3.555,3.555,0,0,1,5.131-4.916l6.1,6.1a2.037,2.037,0,0,0,.046-.346V7.582l-.006-.015h.006V3.332a2,2,0,0,0-2-2H3.332A2,2,0,0,0,1.333,3.332ZM33.315,17.99a3.313,3.313,0,0,1-.281,1.333l1.156-.446a2,2,0,0,0,1.147-2.583l-2.022-5.249h0Zm-4,17.991V34.648H30.65v1.333ZM15.325,16.658V15.325H17.99v1.333Zm-11.993,0V15.325H6v1.333Zm11.993-4V11.327H17.99V12.66Zm-4,0V11.327h2.665V12.66Zm-4,0V11.327H9.995V12.66Zm-4,0V11.327H6V12.66ZM4.4,9.328A1.734,1.734,0,0,1,2.665,7.6V4.4A1.735,1.735,0,0,1,4.4,2.665H7.6A1.734,1.734,0,0,1,9.328,4.4V7.6A1.733,1.733,0,0,1,7.6,9.328ZM4,7.6a.4.4,0,0,0,.4.4H7.6A.4.4,0,0,0,8,7.6V6.663H6.663V5.33H8V4.4A.4.4,0,0,0,7.6,4H4.4a.4.4,0,0,0-.4.4V5.33H5.33V6.663H4ZM27.986,5.331v-2h1.332v2Zm-2.666,0v-2h1.333v2Zm-2.665,0v-2h1.332v2Zm-2.666,0v-2h1.333v2Z" transform="translate(16 16)" fill="#fff"/>
</svg>
