<svg id="Group_22" data-name="Group 22" xmlns="http://www.w3.org/2000/svg" width="72" height="72" viewBox="0 0 72 72">
  <circle id="Oval_Copy" data-name="Oval Copy" cx="36" cy="36" r="36" fill="#2d314d"/>
  <path id="Combined_Shape" data-name="Combined Shape" d="M3.092,40A3.1,3.1,0,0,1,0,36.908v-7.24a.587.587,0,1,1,1.174,0V33.19h21.37V29.338a10.527,10.527,0,0,1-2.89-.568l-4.383,2.391a.565.565,0,0,1-.272.071.61.61,0,0,1-.49-.263.564.564,0,0,1-.07-.525l1.308-3.6H9.041a.589.589,0,0,1-.416-.173l-4.7-4.7a.591.591,0,0,1-.172-.415V8.728a.588.588,0,0,1,.587-.588H19.373a.588.588,0,0,1,.588.588v2.4a10.55,10.55,0,0,1,2.583-.467V6.184H1.174v20.7a.587.587,0,0,1-1.174,0V3.092A3.1,3.1,0,0,1,3.092,0H20.626a3.1,3.1,0,0,1,3.092,3.092v7.57A9.644,9.644,0,0,1,33.112,20a9.643,9.643,0,0,1-9.394,9.338v7.571A3.1,3.1,0,0,1,20.626,40ZM1.174,36.908a1.92,1.92,0,0,0,1.918,1.918H20.626a1.92,1.92,0,0,0,1.918-1.918V34.364H1.174ZM14.325,20a7.84,7.84,0,0,0,2.648,5.846.588.588,0,0,1,.157.635l-1.057,2.906,3.252-1.774a.593.593,0,0,1,.282-.072.581.581,0,0,1,.207.038,9.355,9.355,0,0,0,3.317.6c4.855,0,8.806-3.669,8.806-8.18s-3.951-8.18-8.806-8.18S14.325,15.489,14.325,20Zm-9.393.978H9.041a.588.588,0,0,1,.587.588v4.109H15.2A8.872,8.872,0,0,1,13.151,20a8.784,8.784,0,0,1,.59-3.17H7.475a.587.587,0,0,1,0-1.174h6.819A9.4,9.4,0,0,1,15.762,13.7H13.738a.587.587,0,0,1,0-1.174h3.131a.572.572,0,0,1,.213.04,10.2,10.2,0,0,1,1.7-.986V9.315H4.932Zm3.522,3.866V22.153H5.762ZM1.174,3.092V5.009h21.37V3.092a1.92,1.92,0,0,0-1.918-1.918H3.092A1.92,1.92,0,0,0,1.174,3.092Zm9.432,35.029a.587.587,0,0,1-.587-.587V35.655a.587.587,0,0,1,.587-.587h2.506a.588.588,0,0,1,.587.587v1.879a.587.587,0,0,1-.587.587Zm.588-1.174h1.33v-.7h-1.33Zm11.35-10.685V24.971H22.5A2.468,2.468,0,0,1,20.039,22.5a.587.587,0,1,1,1.174,0A1.293,1.293,0,0,0,22.5,23.8h.94a1.6,1.6,0,1,0,0-3.209h-.626a2.779,2.779,0,0,1-.274-5.544V13.738a.587.587,0,0,1,1.175,0v1.292h.039A2.469,2.469,0,0,1,26.223,17.5v.626a.587.587,0,0,1-1.174,0V17.5A1.293,1.293,0,0,0,23.757,16.2h-.94a1.6,1.6,0,1,0,0,3.209h.626a2.779,2.779,0,0,1,.274,5.544v1.305a.587.587,0,1,1-1.175,0Zm-15.069-6.3a.587.587,0,0,1,0-1.174h4.384a.587.587,0,0,1,0,1.174Zm0-6.262a.587.587,0,0,1,0-1.174h3.758a.587.587,0,0,1,0,1.174Zm3.131-10.02a.587.587,0,0,1,0-1.175h2.5a.587.587,0,1,1,0,1.175Z" transform="translate(24.007 16)" fill="#fff"/>
</svg>
