<svg id="Group_2" data-name="Group 2" xmlns="http://www.w3.org/2000/svg" width="72" height="72" viewBox="0 0 72 72">
  <circle id="Oval_Copy_2" data-name="Oval Copy 2" cx="36" cy="36" r="36" fill="#2d314d"/>
  <path id="Combined_Shape" data-name="Combined Shape" d="M15.989,40H11.107l-.443-1.8c-.21-.077-.426-.168-.642-.268l-1.59.963L4.98,35.439l.962-1.59c-.1-.219-.192-.436-.268-.642l-1.8-.444V27.881l1.8-.443c.077-.208.167-.425.268-.643l-.962-1.59.689-.689H4.516A1.937,1.937,0,0,1,2.58,22.581V21.29a1.938,1.938,0,0,1,1.936-1.936H5.807a.645.645,0,0,0,.644-.644v-.645H0V14.838a7.028,7.028,0,0,1,1.274-4.046A7.119,7.119,0,0,1,4.532,8.229a4.516,4.516,0,1,1,5.129,0A7.177,7.177,0,0,1,13.549,11.9a7.178,7.178,0,0,1,3.887-3.671,4.516,4.516,0,1,1,5.129,0,7.12,7.12,0,0,1,3.259,2.563A7.028,7.028,0,0,1,27.1,14.838v3.226H20.645v.645a.646.646,0,0,0,.645.644h1.291a1.937,1.937,0,0,1,1.935,1.936v1.291a1.937,1.937,0,0,1-1.935,1.935H21.428l.689.689-.963,1.59c.028.061.052.122.076.182.015.04.031.08.048.12h6.287a5.158,5.158,0,1,1,6.66.128A7.1,7.1,0,0,1,40,34.194V40H25.161V32.581a.969.969,0,0,0-.968-.968h-.968v1.151l-1.8.443c-.079.214-.17.43-.268.642l.963,1.59-3.453,3.453-1.59-.963c-.206.1-.422.187-.642.269L15.989,40h0Zm19.5-8.388h1.289v7.1H38.71V34.194A5.813,5.813,0,0,0,32.9,28.387h-17.1a.968.968,0,1,0,0,1.936h8.387a2.261,2.261,0,0,1,2.258,2.258V38.71h9.032v-7.1h0ZM9.967,36.454h0l.32.167a7.117,7.117,0,0,0,1.114.466l.345.11.372,1.513h2.859L15.35,37.2l.346-.109a7.023,7.023,0,0,0,1.113-.466l.321-.167,1.338.809,2.021-2.021-.81-1.337.167-.321a7.182,7.182,0,0,0,.466-1.114l.11-.345,1.513-.373v-.139H19.21a5.828,5.828,0,1,1-.849-4.515h1.5c-.005-.012-.011-.023-.017-.034l-.167-.321.809-1.338-2.021-2.021-1.337.81-.321-.167a7.094,7.094,0,0,0-1.113-.466l-.346-.109-.373-1.514H12.119l-.372,1.513-.346.11a6.918,6.918,0,0,0-1.112.465l-.321.167-1.338-.81L6.608,25.4l.81,1.338-.167.321a7.077,7.077,0,0,0-.466,1.112l-.109.346-1.514.372v2.859l1.513.372.11.346a6.967,6.967,0,0,0,.465,1.113l.167.321-.81,1.338,2.021,2.021,1.337-.81Zm-.934-6.131a4.515,4.515,0,0,0,8.843,1.29H16.5a3.226,3.226,0,1,1-1.711-4.265,2.239,2.239,0,0,1,1.013-.25h.9a4.512,4.512,0,0,0-7.672,3.226Zm2.58,0a1.932,1.932,0,0,0,3.477,1.163,2.254,2.254,0,0,1-1.541-2.131,2.217,2.217,0,0,1,.212-.94c-.027,0-.053-.008-.079-.013a.8.8,0,0,0-.132-.015A1.938,1.938,0,0,0,11.613,30.323Zm15.484-7.1a3.871,3.871,0,1,0,3.871-3.871A3.876,3.876,0,0,0,27.1,23.225Zm-8.432-1.472h0l1.472,1.471h2.444a.645.645,0,0,0,.644-.644V21.29a.646.646,0,0,0-.644-.645H21.29a1.937,1.937,0,0,1-1.936-1.935v-.645H7.742v.645a1.937,1.937,0,0,1-1.935,1.935H4.516a.646.646,0,0,0-.645.645v1.291a.646.646,0,0,0,.645.644H6.96l1.471-1.472,1.59.962c.221-.1.437-.193.643-.268l.443-1.8h4.883l.444,1.8c.21.077.426.168.642.268l1.589-.962Zm3.917-10.141h1.289v5.161h1.936V14.838a5.806,5.806,0,0,0-11.613,0v1.936h1.935V11.613H17.42v5.161h5.162V11.614h0Zm-12.9,0h1.289v5.161H12.9V14.838a5.806,5.806,0,0,0-11.613,0v1.936H3.226V11.613H4.516v5.161H9.678V11.614h0Zm7.1-7.1A3.226,3.226,0,1,0,20,1.291,3.23,3.23,0,0,0,16.774,4.516Zm-12.9,0A3.226,3.226,0,1,0,7.1,1.291,3.23,3.23,0,0,0,3.871,4.516ZM28.387,16.774V12.258A4.521,4.521,0,0,1,32.9,7.742h2.58a4.516,4.516,0,0,1,0,9.032Zm1.291-4.516v3.226h5.806a3.226,3.226,0,1,0,0-6.451H32.9A3.23,3.23,0,0,0,29.677,12.258Zm6.451,1.936V12.9h1.291v1.291Zm-2.58,0V12.9h1.291v1.291Zm-2.58,0V12.9h1.29v1.291Zm0-2.581v-1.29h6.451v1.29Z" transform="translate(16 16)" fill="#fff"/>
</svg>
